<svg xmlns="http://www.w3.org/2000/svg" viewBox="0 0 1200 800" role="img" aria-label="Ciclo de bioenergia">
  <defs>
    <linearGradient id="bg2" x1="0" y1="0" x2="1" y2="1">
      <stop offset="0%" stop-color="#052e2b"/>
      <stop offset="100%" stop-color="#0b3f34"/>
    </linearGradient>
  </defs>
  <rect width="1200" height="800" fill="url(#bg2)"/>
  <circle cx="600" cy="400" r="220" fill="#0f5f4c" stroke="#22c55e" stroke-width="8"/>
  <circle cx="600" cy="400" r="120" fill="#0b3f34" stroke="#34d399" stroke-width="4"/>
  <path d="M600 120 A280 280 0 0 1 870 290" fill="none" stroke="#22c55e" stroke-width="22" stroke-linecap="round"/>
  <polygon points="890,310 835,315 862,265" fill="#22c55e"/>
  <path d="M930 400 A280 280 0 0 1 660 680" fill="none" stroke="#22d3ee" stroke-width="22" stroke-linecap="round"/>
  <polygon points="640,700 670,650 612,655" fill="#22d3ee"/>
  <path d="M540 680 A280 280 0 0 1 270 510" fill="none" stroke="#a3e635" stroke-width="22" stroke-linecap="round"/>
  <polygon points="250,490 305,492 276,545" fill="#a3e635"/>
  <path d="M210 400 A280 280 0 0 1 470 130" fill="none" stroke="#10b981" stroke-width="22" stroke-linecap="round"/>
  <polygon points="490,110 462,162 520,152" fill="#10b981"/>
  <text x="600" y="392" text-anchor="middle" fill="#d1fae5" font-size="52" font-family="Sora, Arial, sans-serif">BIOENERGIA</text>
  <text x="600" y="445" text-anchor="middle" fill="#86efac" font-size="30" font-family="Manrope, Arial, sans-serif">Residuos -> Biogas -> Energia</text>
</svg>