<svg xmlns="http://www.w3.org/2000/svg" viewBox="0 0 1200 800" role="img" aria-label="Monitoreo en tiempo real">
  <defs>
    <linearGradient id="bg" x1="0" y1="0" x2="1" y2="1">
      <stop offset="0%" stop-color="#0b1f3a"/>
      <stop offset="100%" stop-color="#112f56"/>
    </linearGradient>
    <linearGradient id="line" x1="0" y1="0" x2="1" y2="0">
      <stop offset="0%" stop-color="#22d3ee"/>
      <stop offset="100%" stop-color="#22c55e"/>
    </linearGradient>
  </defs>
  <rect width="1200" height="800" fill="url(#bg)"/>
  <rect x="120" y="120" width="960" height="560" rx="28" fill="#0f2748" stroke="#3b82f6" stroke-width="4"/>
  <rect x="170" y="180" width="420" height="240" rx="18" fill="#0b1f3a"/>
  <rect x="620" y="180" width="410" height="130" rx="16" fill="#12335d"/>
  <rect x="620" y="330" width="410" height="220" rx="16" fill="#102b4f"/>
  <path d="M190 390 L260 320 L330 350 L400 260 L470 300 L540 210" fill="none" stroke="url(#line)" stroke-width="10" stroke-linecap="round" stroke-linejoin="round"/>
  <circle cx="260" cy="320" r="8" fill="#22d3ee"/>
  <circle cx="400" cy="260" r="8" fill="#22c55e"/>
  <circle cx="540" cy="210" r="8" fill="#a78bfa"/>
  <text x="170" y="150" fill="#93c5fd" font-size="26" font-family="Manrope, Arial, sans-serif">SCADA / Monitoreo en vivo</text>
  <circle cx="670" cy="245" r="36" fill="#22d3ee"/>
  <circle cx="770" cy="245" r="36" fill="#22c55e"/>
  <circle cx="870" cy="245" r="36" fill="#a78bfa"/>
  <rect x="650" y="380" width="340" height="18" rx="9" fill="#1d4f86"/>
  <rect x="650" y="420" width="280" height="18" rx="9" fill="#2d6aa7"/>
  <rect x="650" y="460" width="220" height="18" rx="9" fill="#3b82f6"/>
</svg>