<svg xmlns="http://www.w3.org/2000/svg" viewBox="0 0 900 620" role="img" aria-label="Ilustracion energia circular">
  <rect width="900" height="620" rx="36" fill="#0b1324"/>
  <circle cx="140" cy="92" r="58" fill="#38bdf8" opacity="0.25"/>
  <circle cx="760" cy="112" r="76" fill="#7c3aed" opacity="0.2"/>
  <rect x="80" y="210" width="220" height="280" rx="16" fill="#15304d"/>
  <rect x="110" y="240" width="65" height="50" rx="8" fill="#67e8f9"/>
  <rect x="190" y="240" width="65" height="50" rx="8" fill="#5eead4"/>
  <rect x="110" y="305" width="145" height="20" rx="10" fill="#38bdf8" opacity="0.8"/>
  <rect x="110" y="335" width="120" height="12" rx="6" fill="#9bd7ff" opacity="0.7"/>
  <rect x="360" y="160" width="460" height="330" rx="18" fill="#142947"/>
  <rect x="392" y="200" width="270" height="20" rx="10" fill="#8fd9ff" opacity="0.8"/>
  <rect x="392" y="236" width="220" height="12" rx="6" fill="#6fc9ff" opacity="0.6"/>
  <rect x="392" y="270" width="392" height="180" rx="14" fill="#10213d"/>
  <path d="M426 398l52-64 60 44 56-76 62 28 52-44" fill="none" stroke="#22c55e" stroke-width="10" stroke-linecap="round" stroke-linejoin="round"/>
  <circle cx="426" cy="398" r="9" fill="#22c55e"/>
  <circle cx="478" cy="334" r="9" fill="#22c55e"/>
  <circle cx="538" cy="378" r="9" fill="#22c55e"/>
  <circle cx="594" cy="302" r="9" fill="#22c55e"/>
  <circle cx="656" cy="330" r="9" fill="#22c55e"/>
  <circle cx="708" cy="286" r="9" fill="#22c55e"/>
  <path d="M295 470c60-30 150-50 245-50s185 20 245 50" fill="none" stroke="#38bdf8" stroke-width="6" stroke-dasharray="10 10" opacity="0.8"/>
</svg>
