<svg xmlns="http://www.w3.org/2000/svg" viewBox="0 0 900 620" role="img" aria-label="Ilustracion monitoreo IoT">
  <rect width="900" height="620" rx="36" fill="#0a1628"/>
  <rect x="70" y="90" width="760" height="440" rx="24" fill="#102640"/>
  <rect x="110" y="132" width="300" height="70" rx="12" fill="#133256"/>
  <rect x="130" y="154" width="170" height="18" rx="9" fill="#8fd9ff"/>
  <circle cx="362" cy="167" r="16" fill="#22c55e"/>
  <rect x="110" y="230" width="330" height="260" rx="16" fill="#0d1f39"/>
  <rect x="470" y="230" width="320" height="120" rx="16" fill="#0d1f39"/>
  <rect x="470" y="370" width="320" height="120" rx="16" fill="#0d1f39"/>
  <path d="M140 456v-68l45-18 48 26 52-66 58 36 56-86" fill="none" stroke="#38bdf8" stroke-width="8" stroke-linecap="round" stroke-linejoin="round"/>
  <circle cx="576" cy="290" r="35" fill="#7c3aed" opacity="0.85"/>
  <circle cx="666" cy="290" r="35" fill="#38bdf8" opacity="0.85"/>
  <circle cx="756" cy="290" r="35" fill="#22c55e" opacity="0.85"/>
  <rect x="508" y="410" width="244" height="16" rx="8" fill="#6ed8ff" opacity="0.7"/>
  <rect x="508" y="442" width="170" height="12" rx="6" fill="#6ed8ff" opacity="0.45"/>
  <path d="M450 80c26 18 39 40 39 66" fill="none" stroke="#67e8f9" stroke-width="6" stroke-linecap="round"/>
  <path d="M450 74c38 24 56 53 56 86" fill="none" stroke="#7c3aed" stroke-width="6" stroke-linecap="round" opacity="0.8"/>
</svg>
