<svg xmlns="http://www.w3.org/2000/svg" viewBox="0 0 900 620" role="img" aria-label="Ilustracion stand feria Proindustria">
  <rect width="900" height="620" rx="36" fill="#0b1324"/>
  <rect x="70" y="460" width="760" height="70" rx="12" fill="#0f2038"/>
  <rect x="140" y="170" width="620" height="320" rx="18" fill="#142a46"/>
  <rect x="140" y="170" width="620" height="70" rx="18" fill="#1d4ed8"/>
  <rect x="182" y="190" width="265" height="30" rx="10" fill="#dff6ff"/>
  <rect x="470" y="184" width="250" height="42" rx="11" fill="#7c3aed"/>
  <rect x="188" y="272" width="220" height="180" rx="12" fill="#0d203a"/>
  <rect x="430" y="272" width="286" height="78" rx="12" fill="#0d203a"/>
  <rect x="430" y="374" width="286" height="78" rx="12" fill="#0d203a"/>
  <path d="M210 426l35-38 40 22 48-52 40 20" fill="none" stroke="#22c55e" stroke-width="8" stroke-linecap="round" stroke-linejoin="round"/>
  <circle cx="530" cy="312" r="18" fill="#38bdf8"/>
  <circle cx="586" cy="312" r="18" fill="#22c55e"/>
  <circle cx="642" cy="312" r="18" fill="#7c3aed"/>
  <circle cx="235" cy="538" r="18" fill="#67e8f9"/>
  <circle cx="670" cy="538" r="18" fill="#67e8f9"/>
</svg>
