<svg xmlns="http://www.w3.org/2000/svg" viewBox="0 0 260 260" role="img" aria-label="Logo Instituto Tecnologico Mexico">
  <defs>
    <linearGradient id="ringBlue" x1="0" y1="0" x2="1" y2="1">
      <stop offset="0" stop-color="#0048a8"/>
      <stop offset="1" stop-color="#0c6ad8"/>
    </linearGradient>
  </defs>
  <circle cx="130" cy="130" r="126" fill="url(#ringBlue)"/>
  <circle cx="130" cy="130" r="104" fill="#ffffff"/>
  <circle cx="130" cy="130" r="92" fill="#efe5cf" stroke="#1d3f6b" stroke-width="2"/>

  <rect x="86" y="52" width="88" height="14" fill="#101010"/>
  <rect x="86" y="66" width="88" height="16" fill="#f2d16d"/>
  <rect x="86" y="82" width="88" height="16" fill="#d15a49"/>
  <rect x="86" y="98" width="88" height="16" fill="#3d9b65"/>
  <rect x="86" y="114" width="88" height="14" fill="#0f4f92"/>

  <circle cx="130" cy="160" r="40" fill="#f2e2b9" stroke="#7d5d34" stroke-width="3"/>
  <circle cx="130" cy="160" r="26" fill="#9fcbe8" stroke="#305f86" stroke-width="3"/>
  <path d="M108 166c8 7 15 10 22 10 9 0 17-3 24-10" fill="none" stroke="#2c5c3b" stroke-width="4" stroke-linecap="round"/>
  <path d="M104 148h52" stroke="#d89921" stroke-width="6" stroke-linecap="round"/>
  <path d="M130 120v-12" stroke="#7b4b22" stroke-width="4" stroke-linecap="round"/>

  <text x="130" y="27" text-anchor="middle" font-family="Arial,sans-serif" font-size="16" font-weight="700" fill="#ffffff">Instituto Tecnologico Mexico</text>
  <text x="130" y="45" text-anchor="middle" font-family="Arial,sans-serif" font-size="18" font-weight="800" fill="#ffe88f">1974</text>
  <text x="130" y="224" text-anchor="middle" font-family="Arial,sans-serif" font-size="15" font-weight="700" fill="#ffffff">Excelencia, Valor y Emprender</text>
  <text x="130" y="242" text-anchor="middle" font-family="Arial,sans-serif" font-size="14" font-weight="700" fill="#ffffff">Santiago, Republica Dominicana</text>
</svg>
