<svg xmlns="http://www.w3.org/2000/svg" viewBox="0 0 220 220" role="img" aria-label="Logo PRERMI">
  <defs>
    <linearGradient id="g1" x1="0" y1="0" x2="1" y2="1">
      <stop offset="0%" stop-color="#38bdf8"/>
      <stop offset="50%" stop-color="#06b6d4"/>
      <stop offset="100%" stop-color="#7c3aed"/>
    </linearGradient>
  </defs>
  <rect x="15" y="15" width="190" height="190" rx="44" fill="#0b1220"/>
  <rect x="25" y="25" width="170" height="170" rx="34" fill="url(#g1)" opacity="0.18"/>
  <path d="M55 156V68h54c27 0 42 11 42 33 0 24-15 35-42 35H81v20H55zm26-42h24c12 0 19-4 19-13 0-8-7-12-19-12H81v25z" fill="#e6f7ff"/>
  <circle cx="153" cy="154" r="14" fill="#22c55e"/>
  <path d="M153 142c4 6 4 11 0 16-4-5-4-10 0-16z" fill="#0b1220"/>
</svg>
